<svg width="20" height="20" viewBox="0 0 20 20" fill="none" xmlns="http://www.w3.org/2000/svg">
<path d="M19.5 10C19.5 15.2467 15.2467 19.5 10 19.5C4.75329 19.5 0.5 15.2467 0.5 10C0.5 4.75329 4.75329 0.5 10 0.5C15.2467 0.5 19.5 4.75329 19.5 10Z" fill="white" stroke="#3653FE"/>
<path d="M10 19.5C15.2467 19.5 19.5 15.2467 19.5 10C19.5 4.75329 15.2467 0.5 10 0.5C4.75329 0.5 0.5 4.75329 0.5 10C0.5 15.2467 4.75329 19.5 10 19.5Z" stroke="#3653FE"/>
<path d="M5.46963 9.6165L13.0559 7.05108L10.4907 14.6416L9.39846 11.0458L9.32094 10.7906L9.06584 10.7128L5.46963 9.6165ZM13.706 6.689L13.7093 6.67937L13.7016 6.66167L13.706 6.689Z" fill="#3653FE" stroke="#3653FE"/>
</svg>
