<svg width="14" height="18" viewBox="0 0 14 18" fill="none" xmlns="http://www.w3.org/2000/svg">
<path d="M13 7.3639C13 12.1366 7 16.2275 7 16.2275C7 16.2275 1 12.1366 1 7.3639C1 5.73644 1.63214 4.17563 2.75736 3.02484C3.88258 1.87405 5.4087 1.22754 7 1.22754C8.5913 1.22754 10.1174 1.87405 11.2426 3.02484C12.3679 4.17563 13 5.73644 13 7.3639Z" stroke="#3653FE" stroke-width="1.8" stroke-linecap="round" stroke-linejoin="round"/>
<path d="M7 9.40936C8.10457 9.40936 9 8.49358 9 7.3639C9 6.23423 8.10457 5.31845 7 5.31845C5.89543 5.31845 5 6.23423 5 7.3639C5 8.49358 5.89543 9.40936 7 9.40936Z" stroke="#3653FE" stroke-width="1.8" stroke-linecap="round" stroke-linejoin="round"/>
</svg>
